#!OML:ASF X:\für Bonn\!DataBase\2005_08_11_Bastian_Final\c3d\Bastian.ASF
:FULLY-SPECIFIED
:DEGREES
229
root 18.8269 16.2647 -4.0484 15.2267 118.127 -698.411
lowerback 5.07859 1.07304 3.30996
upperback 6.12935 1.77727 0.173196
thorax 3.57824 1.1326 -1.69785
lowerneck -5.34771 3.02364 -3.02326
upperneck -1.87497 4.25737 1.60642
head 0.208454 2.18156 1.0647
rclavicle -3.33958e-014 -4.77083e-015
rhumerus -47.2839 15.5623 -96.389
rradius 90.1944
rwrist 16.3434
rhand -20.0362 17.8436
rfingers 7.12502
rthumb 6.30485 -12.0425
lclavicle -3.33958e-014 -4.77083e-015
lhumerus -51.9426 -7.99325 81.0819
lradius 92.7352
lwrist 212.385
lhand -28.6827 11.0327
lfingers 7.12502
lthumb -2.04529 41.0027
rfemur -7.84277 -13.4654 17.6252
rtibia 92.9316
rfoot 1.96066 1.10381
rtoes -30.1689
lfemur -21.9121 3.5633 -29.758
ltibia 46.1126
lfoot -11.6404 -9.72702
ltoes 29.7402
230
root 19.0636 16.1492 -4.07812 13.8093 118.87 -699.668
lowerback 5.66513 0.912952 2.93947
upperback 6.15427 1.58862 0.015168
thorax 3.25859 1.02804 -1.6651
lowerneck -5.75755 3.02308 -2.66193
upperneck -1.71182 4.2484 1.57454
head 0.334795 2.17676 1.0049
rclavicle -3.95581e-014 3.49861e-014
rhumerus -47.2628 14.5216 -95.9095
rradius 86.8644
rwrist 16.2485
rhand -20.9484 17.1436
rfingers 7.12502
rthumb 5.42421 -12.7669
lclavicle -3.95581e-014 3.49861e-014
lhumerus -50.3354 -7.78356 81.88
lradius 92.112
lwrist 211.967
lhand -28.6166 10.4967
lfingers 7.12502
lthumb -1.98146 40.4672
rfemur -9.54257 -12.7685 17.4231
rtibia 95.2622
rfoot 1.17262 0.554353
rtoes -29.3912
lfemur -21.976 3.32414 -30.073
ltibia 48.5433
lfoot -12.5527 -10.1665
ltoes 31.1893
231
root 19.2955 16.036 -4.10599 12.5402 119.577 -700.709
lowerback 6.33433 0.76365 2.60118
upperback 6.18405 1.41428 -0.116317
thorax 2.90174 0.932644 -1.62161
lowerneck -6.14953 3.03108 -2.32269
upperneck -1.51445 4.24715 1.58087
head 0.467761 2.17615 0.961513
rclavicle -3.97569e-016 4.92986e-014
rhumerus -47.2003 13.5671 -95.4391
rradius 83.3684
rwrist 15.6464
rhand -21.9307 16.6285
rfingers 7.12502
rthumb 4.47564 -13.3042
lclavicle -3.97569e-016 4.92986e-014
lhumerus -48.7049 -7.72526 82.7794
lradius 91.3776
lwrist 211.591
lhand -28.433 10.1316
lfingers 7.12502
lthumb -1.80414 40.1037
rfemur -11.295 -11.9849 17.2731
rtibia 97.4135
rfoot 0.572138 -0.00889306
rtoes -27.9315
lfemur -21.8846 3.23457 -30.2639
ltibia 50.8066
lfoot -13.8262 -10.7418
ltoes 31.8489
232
root 19.5249 15.9334 -4.13218 11.2794 120.252 -701.606
lowerback 7.18126 0.611445 2.22337
upperback 6.24287 1.23769 -0.193439
thorax 2.47736 0.836409 -1.49929
lowerneck -6.53974 3.06512 -2.07687
upperneck -1.30508 4.28322 1.59605
head 0.602113 2.1949 0.937895
rclavicle -5.86415e-014 7.95139e-015
rhumerus -47.0752 12.7062 -94.8931
rradius 79.77
rwrist 14.6267
rhand -22.7965 16.3054
rfingers 7.12502
rthumb 3.63966 -13.6433
lclavicle -5.86415e-014 7.95139e-015
lhumerus -47.0712 -7.80117 83.7541
lradius 90.7097
lwrist 211.315
lhand -28.2434 9.93848
lfingers 7.12502
lthumb -1.62097 39.9121
rfemur -12.9775 -11.1176 17.1348
rtibia 99.3459
rfoot 0.160898 -0.537476
rtoes -24.9943
lfemur -21.5354 3.19465 -30.2979
ltibia 52.8464
lfoot -15.1343 -11.5413
ltoes 33.0323
233
root 19.7548 15.8403 -4.15527 10.0749 120.906 -702.389
lowerback 8.05943 0.469613 1.79564
upperback 6.32625 1.06836 -0.249332
thorax 2.06465 0.744613 -1.32337
lowerneck -6.89723 3.11184 -1.86116
upperneck -1.08563 4.33426 1.67835
head 0.732814 2.22228 0.940413
rclavicle 2.48481e-014 -4.92986e-014
rhumerus -46.8162 11.8849 -94.3399
rradius 75.9911
rwrist 13.2936
rhand -23.4635 16.0863
rfingers 7.12502
rthumb 2.99549 -13.8724
lclavicle 2.48481e-014 -4.92986e-014
lhumerus -45.4651 -8.10681 84.7168
lradius 90.2268
lwrist 211.199
lhand -28.0325 9.8775
lfingers 7.12502
lthumb -1.41727 39.8525
rfemur -14.6651 -10.1364 17.068
rtibia 101.061
rfoot -0.463 -1.29355
rtoes -22.667
lfemur -20.9437 3.20044 -30.2568
ltibia 54.6164
lfoot -16.5254 -12.4101
ltoes 33.6701
234
root 19.9868 15.7616 -4.18072 8.88716 121.558 -703.145
lowerback 8.92314 0.324545 1.30927
upperback 6.40612 0.882504 -0.269638
thorax 1.65916 0.643431 -1.07228
lowerneck -7.22961 3.16746 -1.79623
upperneck -0.837135 4.40418 1.84907
head 0.864336 2.26074 0.99672
rclavicle 1.09332e-014 2.54444e-014
rhumerus -46.5197 11.1524 -93.7425
rradius 72.1604
rwrist 11.7492
rhand -23.7767 15.8784
rfingers 7.12502
rthumb 2.69299 -14.0843
lclavicle 1.09332e-014 2.54444e-014
lhumerus -44.1184 -8.524 85.7175
lradius 89.9581
lwrist 211.181
lhand -27.9147 10.1733
lfingers 7.12502
lthumb -1.30353 40.1491
rfemur -16.3248 -9.16003 16.954
rtibia 102.529
rfoot -1.33555 -2.12837
rtoes -21.261
lfemur -20.1491 3.11583 -30.2026
ltibia 56.1018
lfoot -17.9439 -13.2113
ltoes 33.8732
235
root 20.2211 15.6988 -4.21138 7.78736 122.219 -703.817
lowerback 9.70318 0.184048 0.835356
upperback 6.50794 0.695408 -0.27602
thorax 1.32817 0.544347 -0.807849
lowerneck -7.62776 3.20689 -1.73372
upperneck -0.517078 4.45044 2.0313
head 1.03098 2.28827 1.06007
rclavicle -1.05356e-014 1.27222e-014
rhumerus -46.0999 10.4053 -93.0885
rradius 68.2926
rwrist 10.2667
rhand -23.747 15.4858
rfingers 7.12502
rthumb 2.72172 -14.4766
lclavicle -1.05356e-014 1.27222e-014
lhumerus -42.8589 -9.04274 86.6402
lradius 89.7802
lwrist 211.324
lhand -28.0004 10.9086
lfingers 7.12502
lthumb -1.3863 40.8838
rfemur -17.9741 -8.21659 16.8293
rtibia 103.748
rfoot -2.26276 -2.86809
rtoes -19.5067
lfemur -19.1654 2.90706 -30.1105
ltibia 57.2723
lfoot -19.2858 -13.8238
ltoes 33.5984
236
root 20.4594 15.6524 -4.25156 6.77934 122.875 -704.405
lowerback 10.3429 0.0415679 0.37327
upperback 6.62327 0.498056 -0.260195
thorax 1.09291 0.441203 -0.520664
lowerneck -7.95157 3.26364 -1.67634
upperneck -0.183937 4.5161 2.20464
head 1.18983 2.32521 1.12128
rclavicle -4.37326e-015 1.74931e-014
rhumerus -45.6918 9.73499 -92.4043
rradius 64.4889
rwrist 9.07314
rhand -23.4681 14.8966
rfingers 7.12502
rthumb 2.99109 -15.0621
lclavicle -4.37326e-015 1.74931e-014
lhumerus -41.6163 -9.51419 87.5297
lradius 89.7361
lwrist 211.555
lhand -28.3385 11.8159
lfingers 7.12502
lthumb -1.71283 41.7887
rfemur -19.551 -7.34815 16.6715
rtibia 104.683
rfoot -3.34188 -3.54919
rtoes -17.3097
lfemur -17.9887 2.57079 -30.0014
ltibia 58.1157
lfoot -20.5364 -14.1936
ltoes 33.2827
237
root 20.6998 15.623 -4.30635 5.9601 123.545 -704.895
lowerback 10.7495 -0.111684 0.00960186
upperback 6.73337 0.285113 -0.248311
thorax 0.983915 0.332066 -0.286457
lowerneck -8.06467 3.33587 -1.62838
upperneck -0.000489195 4.60224 2.37946
head 1.26403 2.37224 1.17746
rclavicle 1.21259e-013 -1.59028e-015
rhumerus -45.3798 9.13819 -91.7147
rradius 60.8259
rwrist 8.20765
rhand -23.0395 14.11
rfingers 7.12502
rthumb 3.40491 -15.8425
lclavicle 1.21259e-013 -1.59028e-015
lhumerus -40.3543 -9.90199 88.3474
lradius 89.8295
lwrist 211.799
lhand -28.9608 12.768
lfingers 7.12502
lthumb -2.31384 42.7352
rfemur -21.1602 -6.60244 16.5156
rtibia 105.351
rfoot -4.51619 -4.19572
rtoes -15.6278
lfemur -16.7046 2.13146 -29.8855
ltibia 58.6073
lfoot -21.7266 -14.4039
ltoes 32.675
238
root 20.9398 15.6108 -4.3747 5.29785 124.22 -705.332
lowerback 10.9391 -0.279039 -0.301323
upperback 6.84622 0.0525433 -0.214799
thorax 0.998861 0.212504 -0.0547611
lowerneck -8.0989 3.41686 -1.63399
upperneck 0.164581 4.70371 2.51314
head 1.31799 2.4253 1.22812
rclavicle -5.14852e-014 -4.77083e-015
rhumerus -45.1808 8.63303 -90.9783
rradius 57.3911
rwrist 7.86059
rhand -22.5759 13.1857
rfingers 7.12502
rthumb 3.85269 -16.7592
lclavicle -5.14852e-014 -4.77083e-015
lhumerus -39.0651 -10.3123 89.1379
lradius 90.0852
lwrist 212.076
lhand -29.7086 13.7121
lfingers 7.12502
lthumb -3.03604 43.6702
rfemur -22.839 -6.02618 16.3349
rtibia 105.767
rfoot -5.84956 -4.89686
rtoes -15.398
lfemur -15.3543 1.63862 -29.7908
ltibia 58.7644
lfoot -22.8296 -14.5507
ltoes 31.9996
239
root 21.1805 15.6132 -4.4495 4.88235 124.89 -705.621
lowerback 10.9482 -0.452553 -0.551977
upperback 6.92897 -0.189398 -0.14881
thorax 1.08308 0.0860681 0.178188
lowerneck -8.00577 3.5025 -1.64921
upperneck 0.251766 4.8129 2.59055
head 1.32522 2.48008 1.25787
rclavicle 5.82439e-014 3.18055e-015
rhumerus -45.0713 8.21758 -90.2541
rradius 54.2119
rwrist 7.855
rhand -22.1731 12.2416
rfingers 7.12502
rthumb 4.24164 -17.696
lclavicle 5.82439e-014 3.18055e-015
lhumerus -37.8073 -10.8282 89.8936
lradius 90.5504
lwrist 212.39
lhand -30.4028 14.4321
lfingers 7.12502
lthumb -3.7064 44.3796
rfemur -24.665 -5.51916 16.2724
rtibia 105.953
rfoot -7.3084 -5.75302
rtoes -15.8449
lfemur -13.9617 1.06173 -29.6262
ltibia 58.6065
lfoot -23.7855 -14.7054
ltoes 31.5662
240
root 21.4195 15.6307 -4.53089 4.8317 125.595 -705.807
lowerback 10.6272 -0.642197 -0.721791
upperback 6.9467 -0.457062 -0.0627776
thorax 1.2804 -0.0576193 0.386899
lowerneck -7.84847 3.59011 -1.66934
upperneck 0.319243 4.92485 2.64021
head 1.31516 2.53497 1.27746
rclavicle -4.67144e-014 2.06736e-014
rhumerus -45.0112 7.81613 -89.5419
rradius 51.3102
rwrist 8.20708
rhand -21.9474 11.3106
rfingers 7.12502
rthumb 4.45959 -18.6224
lclavicle -4.67144e-014 2.06736e-014
lhumerus -36.5317 -11.4868 90.5789
lradius 91.0283
lwrist 212.756
lhand -31.0994 14.9579
lfingers 7.12502
lthumb -4.37911 44.8927
rfemur -26.792 -5.1903 16.3101
rtibia 105.912
rfoot -8.57998 -6.4918
rtoes -15.9136
lfemur -12.7273 0.326494 -29.4201
ltibia 58.1522
lfoot -24.5677 -14.8375
ltoes 31.0966
